#!OML:ASF F:\VICON\USERDATA\INSTALL\Justin_Nancy\Justin_Nancy.ASF
:FULLY-SPECIFIED
:DEGREES
64
root 9.8056 17.5495 -19.7107 0.828049 -5.1599 -4.27183
lowerback 5.72245 1.48453 4.18456
upperback 0.689373 2.32187 3.24383
thorax -2.46701 1.12793 0.819088
lowerneck -14.8735 -4.12031 -9.76278
upperneck 23.3063 -4.37687 4.32568
head 10.222 -2.38784 2.58537
rclavicle -5.31749e-015 -3.10104e-014
rhumerus -24.7022 -8.12721 -80.4682
rradius 32.0575
rwrist 5.2568
rhand -13.7772 12.4744
rfingers 7.12502
rthumb 12.344 -17.1412
lclavicle -5.31749e-015 -3.10104e-014
lhumerus -32.5094 9.57885 84.4617
lradius 24.9091
lwrist -9.41917
lhand -16.8538 26.0958
lfingers 7.12502
lthumb 9.37639 55.8673
rfemur 6.34243 3.68699 31.9943
rtibia 10.1392
rfoot -11.2497 -0.744581
rtoes 3.4876
lfemur -30.1924 -0.543698 -14.3164
ltibia 32.9116
lfoot -8.94023 10.567
ltoes -8.552
65
root 9.8041 17.5519 -19.5877 1.14883 -5.19941 -4.41021
lowerback 5.44383 1.47766 4.35812
upperback 0.591084 2.31052 3.27719
thorax -2.40732 1.12089 0.764265
lowerneck -15.1797 -4.03134 -9.80887
upperneck 23.5697 -4.23591 4.41525
head 10.3676 -2.31709 2.64406
rclavicle -7.8023e-015 -1.11319e-014
rhumerus -24.4625 -7.81022 -80.5962
rradius 32.2038
rwrist 4.97798
rhand -13.604 11.3416
rfingers 7.12502
rthumb 12.5109 -18.2639
lclavicle -7.8023e-015 -1.11319e-014
lhumerus -32.8518 10.0145 84.1817
lradius 24.9286
lwrist -10.36
lhand -15.4942 27.0293
lfingers 7.12502
lthumb 10.688 56.7374
rfemur 6.84326 3.7561 32.1357
rtibia 9.42345
rfoot -11.1779 -0.796434
rtoes 3.75636
lfemur -30.334 -0.765899 -14.0832
ltibia 30.8656
lfoot -9.24664 10.5613
ltoes -6.79865
66
root 9.80486 17.5338 -19.4537 1.40503 -5.33835 -4.33205
lowerback 5.16826 1.4818 4.23074
upperback 0.512265 2.29611 3.35126
thorax -2.34267 1.11583 0.91922
lowerneck -14.9768 -3.97155 -9.85061
upperneck 23.3247 -4.12168 4.27978
head 10.2296 -2.28265 2.61787
rclavicle -1.88348e-014 -2.62396e-014
rhumerus -24.2036 -7.20805 -80.6386
rradius 32.2205
rwrist 4.6221
rhand -13.8369 10.4018
rfingers 7.12502
rthumb 12.2864 -19.2173
lclavicle -1.88348e-014 -2.62396e-014
lhumerus -33.1666 10.6505 84.0579
lradius 24.736
lwrist -10.6138
lhand -15.4975 25.7
lfingers 7.12502
lthumb 10.6849 55.4083
rfemur 7.77842 3.91107 32.0398
rtibia 8.11045
rfoot -10.839 -0.855949
rtoes 3.86574
lfemur -30.6028 -1.4951 -13.8924
ltibia 29.1053
lfoot -9.46357 11.2461
ltoes -5.17356
67
root 9.80912 17.5283 -19.3087 1.45883 -5.73743 -4.32197
lowerback 5.09055 1.61568 4.28654
upperback 0.46247 2.47425 3.33282
thorax -2.34492 1.20343 0.858615
lowerneck -14.7038 -4.00843 -9.80918
upperneck 23.1575 -4.19457 4.21716
head 10.1207 -2.32041 2.57995
rclavicle -1.79403e-014 -2.94201e-014
rhumerus -24.1045 -7.06885 -80.6889
rradius 32.5158
rwrist 4.57538
rhand -13.808 11.3685
rfingers 7.12502
rthumb 12.3142 -18.2489
lclavicle -1.79403e-014 -2.94201e-014
lhumerus -33.3999 11.0878 83.8434
lradius 24.34
lwrist -10.6227
lhand -15.1904 26.9659
lfingers 7.12502
lthumb 10.9812 56.6587
rfemur 8.28392 4.28358 31.9807
rtibia 8.13938
rfoot -11.288 -1.04757
rtoes 5.51344
lfemur -30.3391 -2.55428 -13.486
ltibia 27.1386
lfoot -9.98038 12.4849
ltoes -5.29222
68
root 9.81013 17.5256 -19.1735 1.57643 -5.94362 -4.45306
lowerback 4.93934 1.61337 4.43539
upperback 0.62569 2.46104 3.40966
thorax -2.08902 1.20086 0.863347
lowerneck -15.6253 -4.03267 -9.98073
upperneck 23.5542 -4.09843 4.24622
head 10.439 -2.2835 2.62568
rclavicle -1.86361e-014 3.18055e-015
rhumerus -23.3966 -6.84341 -80.8413
rradius 32.7206
rwrist 4.54105
rhand -13.8246 11.8853
rfingers 7.12502
rthumb 12.2982 -17.733
lclavicle -1.86361e-014 3.18055e-015
lhumerus -33.2421 11.7273 83.6988
lradius 23.9706
lwrist -10.5854
lhand -15.035 27.0256
lfingers 7.12502
lthumb 11.131 56.7103
rfemur 8.65295 4.47763 32.0922
rtibia 8.22042
rfoot -11.8514 -1.06196
rtoes 8.68625
lfemur -30.2967 -3.32359 -13.0043
ltibia 25.3394
lfoot -10.033 13.3098
ltoes -2.52648
69
root 9.8115 17.4672 -19.0498 1.73546 -5.86583 -4.52603
lowerback 4.52149 1.43473 4.48348
upperback 1.42313 2.15294 3.62319
thorax -1.04412 1.06918 1.09997
lowerneck -18.3182 -4.19769 -10.5203
upperneck 24.0036 -3.89485 4.33045
head 11.1259 -2.20564 2.7536
rclavicle -1.76918e-014 2.22639e-014
rhumerus -21.2739 -6.14445 -81.0181
rradius 32.6788
rwrist 4.277
rhand -14.0004 11.6182
rfingers 7.12502
rthumb 12.1287 -18.0102
lclavicle -1.76918e-014 2.22639e-014
lhumerus -31.8133 13.1498 83.8876
lradius 23.5398
lwrist -11.1202
lhand -14.7062 27.2652
lfingers 7.12502
lthumb 11.4481 56.9326
rfemur 9.08822 4.39336 32.2191
rtibia 7.97199
rfoot -11.9533 -1.13226
rtoes 9.76005
lfemur -30.8508 -4.37616 -12.5172
ltibia 23.8381
lfoot -9.53677 14.591
ltoes -0.850259
70
root 9.81509 17.4711 -18.9208 1.83839 -5.92577 -4.31347
lowerback 4.7993 1.50125 4.332
upperback 0.52768 2.30244 3.42337
thorax -2.11893 1.12165 0.947608
lowerneck -15.6337 -3.96819 -10.1137
upperneck 23.4051 -3.96714 4.24395
head 10.3794 -2.23304 2.66378
rclavicle -2.84262e-014 -2.38542e-014
rhumerus -23.0036 -5.97635 -81.1116
rradius 33.0595
rwrist 3.97719
rhand -13.8411 9.91527
rfingers 7.12502
rthumb 12.2823 -19.704
lclavicle -2.84262e-014 -2.38542e-014
lhumerus -33.7127 12.5801 83.3435
lradius 23.5151
lwrist -10.8848
lhand -14.3571 28.0234
lfingers 7.12502
lthumb 11.7848 57.6719
rfemur 9.40366 4.43617 32.0084
rtibia 7.95785
rfoot -11.8632 -1.65743
rtoes 6.01344
lfemur -30.8541 -5.46037 -12.3615
ltibia 22.7032
lfoot -10.9403 15.7981
ltoes -0.809878
